<svg xmlns="http://www.w3.org/2000/svg" aria-hidden="true"
    style="position:absolute;width:0;height:0;overflow:hidden">
    <defs>
        <symbol id="icon-tiktok" viewBox="0 0 32 32">
            <path
                d="M16.707.027C18.454 0 20.187.014 21.92 0c.107 2.04.84 4.12 2.333 5.56 1.493 1.48 3.6 2.16 5.653 2.387v5.373c-1.92-.067-3.853-.467-5.6-1.293-.76-.347-1.467-.787-2.16-1.24-.013 3.893.013 7.787-.027 11.667-.107 1.867-.72 3.72-1.8 5.253-1.747 2.56-4.773 4.227-7.88 4.28-1.907.107-3.813-.413-5.44-1.373-2.693-1.587-4.587-4.493-4.867-7.613a24.42 24.42 0 0 1-.013-1.987 10.004 10.004 0 0 1 3.44-6.613c2.213-1.92 5.307-2.84 8.2-2.293.027 1.973-.053 3.947-.053 5.92-1.32-.427-2.867-.307-4.027.493a4.631 4.631 0 0 0-1.813 2.333c-.28.68-.2 1.427-.187 2.147.32 2.187 2.427 4.027 4.667 3.827 1.493-.013 2.92-.88 3.693-2.147.253-.44.533-.893.547-1.413.133-2.387.08-4.76.093-7.147.013-5.373-.013-10.733.027-16.093z" />
        </symbol>
        <symbol id="icon-plus" viewBox="0 0 32 32">
            <path
                d="M28 18H18v10c0 1.1-.896 2-2 2s-2-.9-2-2V18H4c-1.104 0-2-.9-2-2s.896-2 2-2h10V4c0-1.1.896-2 2-2s2 .9 2 2v10h10c1.104 0 2 .9 2 2s-.896 2-2 2zm0-6h-8V4a4 4 0 1 0-8 0v8H4a4 4 0 1 0 0 8h8v8a4 4 0 1 0 8 0v-8h8a4 4 0 1 0 0-8z" />
        </symbol>
        <symbol id="icon-facebook" viewBox="0 0 32 32">
            <path
                d="M30.996 16.091C30.995 7.81 24.282 1.097 16 1.097S1.004 7.811 1.004 16.093c0 7.455 5.44 13.639 12.566 14.8l.086.012V20.427H9.848v-4.336h3.808v-3.302a5.293 5.293 0 0 1 5.684-5.834l-.018-.001c1.199.017 2.359.123 3.491.312l-.134-.019v3.69h-1.892a2.168 2.168 0 0 0-2.444 2.351l-.001-.009v2.812h4.159l-.665 4.336h-3.494v10.478c7.213-1.174 12.653-7.359 12.654-14.814z" />
        </symbol>
        <symbol id="icon-cross" viewBox="0 0 32 32">
            <path
                d="M9.326 9.342a1.333 1.333 0 0 0 0 1.886l4.78 4.78-4.78 4.78a1.333 1.333 0 1 0 1.886 1.886l4.78-4.78 4.78 4.78a1.333 1.333 0 1 0 1.886-1.886l-4.78-4.78 4.78-4.78a1.333 1.333 0 1 0-1.886-1.886l-4.78 4.78-4.78-4.78a1.333 1.333 0 0 0-1.886 0z" />
        </symbol>
        <symbol id="icon-home" viewBox="0 0 32 32">
            <path
                d="M32 18.451 16 6.031 0 18.451v-5.064L16 .967l16 12.42zM28 18v12h-8v-8h-8v8H4V18l12-9z" />
        </symbol>
        <symbol id="icon-phone" viewBox="0 0 32 32">
            <path
                d="M22 20c-2 2-2 4-4 4s-4-2-6-4-4-4-4-6 2-2 4-4-4-8-6-8-6 6-6 6c0 4 4.109 12.109 8 16s12 8 16 8c0 0 6-4 6-6s-6-8-8-6z" />
        </symbol>
        <symbol id="icon-envelop" viewBox="0 0 32 32">
            <path
                d="M29 4H3C1.35 4 0 5.35 0 7v20c0 1.65 1.35 3 3 3h26c1.65 0 3-1.35 3-3V7c0-1.65-1.35-3-3-3zM12.461 17.199 4 23.789V8.113l8.461 9.086zM5.512 8h20.976L16 15.875 5.512 8zm7.278 9.553L16 21l3.21-3.447L25.79 26H6.211l6.58-8.447zm6.749-.354L28 8.113v15.676l-8.461-6.59z" />
        </symbol>
        <symbol id="icon-burger" viewBox="0 0 32 32">
            <path
                d="M3.2 5.12h-.018a1.28 1.28 0 1 0 0 2.56h25.636a1.28 1.28 0 1 0 0-2.56H3.2zm0 9.6h-.018a1.28 1.28 0 1 0 0 2.56h25.636a1.28 1.28 0 1 0 0-2.56H3.2zm0 9.6h-.018a1.28 1.28 0 1 0 0 2.56h25.636a1.28 1.28 0 1 0 0-2.56H3.2z" />
        </symbol>
        <symbol id="icon-minus" viewBox="0 0 32 32">
            <path d="M0 13v6a1 1 0 0 0 1 1h30a1 1 0 0 0 1-1v-6a1 1 0 0 0-1-1H1a1 1 0 0 0-1 1z" />
        </symbol>
        <symbol id="icon-arrow-right" viewBox="0 0 32 32">
            <path
                d="m19.414 27.414 10-10a2 2 0 0 0 0-2.828l-10-10a2 2 0 1 0-2.828 2.828L23.172 14H4a2 2 0 1 0 0 4h19.172l-6.586 6.586c-.39.39-.586.902-.586 1.414s.195 1.024.586 1.414a2 2 0 0 0 2.828 0z" />
        </symbol>
        <symbol id="icon-instagram" viewBox="0 0 32 32">
            <path
                d="M16 2.881c4.275 0 4.781.019 6.462.094 1.563.069 2.406.331 2.969.55a4.952 4.952 0 0 1 1.837 1.194 5.015 5.015 0 0 1 1.2 1.838c.219.563.481 1.412.55 2.969.075 1.688.094 2.194.094 6.463s-.019 4.781-.094 6.463c-.069 1.563-.331 2.406-.55 2.969a4.94 4.94 0 0 1-1.194 1.837 5.02 5.02 0 0 1-1.837 1.2c-.563.219-1.413.481-2.969.55-1.688.075-2.194.094-6.463.094s-4.781-.019-6.463-.094c-1.563-.069-2.406-.331-2.969-.55a4.952 4.952 0 0 1-1.838-1.194 5.02 5.02 0 0 1-1.2-1.837c-.219-.563-.481-1.413-.55-2.969-.075-1.688-.094-2.194-.094-6.463s.019-4.781.094-6.463c.069-1.563.331-2.406.55-2.969a4.964 4.964 0 0 1 1.194-1.838 5.015 5.015 0 0 1 1.838-1.2c.563-.219 1.412-.481 2.969-.55 1.681-.075 2.188-.094 6.463-.094zM16 0c-4.344 0-4.887.019-6.594.094-1.7.075-2.869.35-3.881.744-1.056.412-1.95.956-2.837 1.85a7.833 7.833 0 0 0-1.85 2.831C.444 6.538.169 7.7.094 9.4.019 11.113 0 11.656 0 16s.019 4.887.094 6.594c.075 1.7.35 2.869.744 3.881.413 1.056.956 1.95 1.85 2.837a7.82 7.82 0 0 0 2.831 1.844c1.019.394 2.181.669 3.881.744 1.706.075 2.25.094 6.594.094s4.888-.019 6.594-.094c1.7-.075 2.869-.35 3.881-.744 1.05-.406 1.944-.956 2.831-1.844s1.438-1.781 1.844-2.831c.394-1.019.669-2.181.744-3.881.075-1.706.094-2.25.094-6.594s-.019-4.887-.094-6.594c-.075-1.7-.35-2.869-.744-3.881a7.506 7.506 0 0 0-1.831-2.844A7.82 7.82 0 0 0 26.482.843C25.463.449 24.301.174 22.601.099c-1.712-.081-2.256-.1-6.6-.1z" />
            <path
                d="M16 7.781c-4.537 0-8.219 3.681-8.219 8.219s3.681 8.219 8.219 8.219 8.219-3.681 8.219-8.219A8.221 8.221 0 0 0 16 7.781zm0 13.55a5.331 5.331 0 1 1 0-10.663 5.331 5.331 0 0 1 0 10.663zM26.462 7.456a1.919 1.919 0 1 1-3.838 0 1.919 1.919 0 0 1 3.838 0z" />
        </symbol>
        <symbol id="icon-medal" viewBox="0 0 32 32">
            <path
                d="M17.062 11.637 21.36 1l5.563 2.248-4.367 10.808a9.958 9.958 0 0 0-5.494-2.419zm-7.693 2.425L5 3.248 10.563 1l4.298 10.638a9.961 9.961 0 0 0-5.492 2.424zm6.597 16.516c4.971 0 9-4.029 9-9s-4.029-9-9-9-9 4.029-9 9 4.029 9 9 9zm0-6.308-3.5 2.308 1.5-4-3-2h3.5l1.5-4 1.5 4h3.5l-3 2 1.5 4-3.5-2.308z" />
        </symbol>
        <symbol id="icon-profile" viewBox="0 0 32 32">
            <path
                d="M27 0H3C1.35 0 0 1.35 0 3v26c0 1.65 1.35 3 3 3h24c1.65 0 3-1.35 3-3V3c0-1.65-1.35-3-3-3zm-1 28H4V4h22v24zM8 18h14v2H8zm0 4h14v2H8zm2-13a3 3 0 1 1 6 0 3 3 0 0 1-6 0zm5 3h-4c-1.65 0-3 .9-3 2v2h10v-2c0-1.1-1.35-2-3-2z" />
        </symbol>
        <symbol id="icon-wrench" viewBox="0 0 32 32">
            <path
                d="M31.342 25.559 16.95 13.223A9 9 0 0 0 6.387.387l5.2 5.2a2.005 2.005 0 0 1 0 2.828l-3.172 3.172a2.005 2.005 0 0 1-2.828 0l-5.2-5.2A9 9 0 0 0 13.223 16.95l12.336 14.392a1.828 1.828 0 0 0 2.716.104l3.172-3.172c.778-.778.731-2-.104-2.716z" />
        </symbol>
        <symbol id="icon-happy" viewBox="0 0 32 32">
            <path
                d="M16 32c8.837 0 16-7.163 16-16S24.837 0 16 0 0 7.163 0 16s7.163 16 16 16zm0-29c7.18 0 13 5.82 13 13s-5.82 13-13 13S3 23.18 3 16 8.82 3 16 3zm0 15.711c3.623 0 7.07-.963 10-2.654-.455 5.576-4.785 9.942-10 9.942s-9.544-4.371-10-9.947a20.027 20.027 0 0 0 10 2.658zM8 11c0-1.657.895-3 2-3s2 1.343 2 3-.895 3-2 3-2-1.343-2-3zm12 0c0-1.657.895-3 2-3s2 1.343 2 3-.895 3-2 3-2-1.343-2-3z" />
        </symbol>

    </defs>
</svg>