<?xml version="1.0" standalone="yes"?>
<svg xmlns="http://www.w3.org/2000/svg" width="960" height="573">
    <path style="fill:#fafbfd; stroke:none;" d="M0 0L0 573L960 573L960 0L0 0z" />
    <path style="fill:#4273b7; stroke:none;"
        d="M464 64.4244C452.116 65.9847 439.954 64.5158 428 65.0394C408.768 65.8816 389.136 67.1249 370 69.1736C358.887 70.3633 348.028 73.2635 337 74.7184C260.156 84.8566 182.579 103.275 113.961 140.367C109.124 142.981 103.833 144.661 99.0887 147.514C56.7637 172.961 11.8533 209.496 3.25926 261C-7.9323 328.072 48.8501 377.581 100.17 408.831C108.038 413.622 116.579 417.216 124.711 421.468C149.977 434.681 176.786 444.326 203.961 452.514C226.492 459.303 249.046 466.285 272 471.471C287.702 475.019 304.012 476.864 320 479.17C352.891 483.914 385.761 488.634 419 490.91C448.797 492.951 479.204 492.344 509 491.039C517.987 490.646 527.013 491.354 536 490.961C545.036 490.565 554 489.027 563 488.17C579.931 486.557 597.052 485.845 614 483.816C648.581 479.675 683.581 472.898 717 463.48C733.539 458.819 750.586 455.42 766.961 449.95C793.655 441.032 819.064 429.59 844.039 416.704C857.583 409.716 871.273 403.019 883.753 393.954C886.767 391.766 889.166 388.846 892.169 386.63C934.356 355.494 968.591 308.052 955.625 253C950.695 232.068 938.017 213.305 923.795 197.703C901.096 172.801 873.05 153.39 843 138.305C820.196 126.857 797.146 117.267 773 109.262C759.382 104.747 745.969 99.1186 732 95.4946C720.872 92.6078 709.259 91.0568 698 88.4853C655.223 78.7151 611.911 70.9882 568 67.9105C549.019 66.5802 529.959 67.2089 511 65.9105C495.477 64.8474 479.591 62.3773 464 64.4244z" />
    <path style="fill:#fafbfd; stroke:none;"
        d="M456 78.4244C449.004 79.343 442.015 78.6091 435 79.0895C411.319 80.7112 387.573 81.4951 364 84.2855C279.989 94.2301 196.868 113.633 121 151.923C90.2781 167.428 61.532 187.625 40.1389 214.741C27.892 230.264 18.0929 248.873 16.1698 269C13.8333 293.452 22.1462 315.11 35.6566 334.999C60.251 371.207 99.3388 394.033 137.91 412.63C201.164 443.125 271.537 459.846 341 468.184C354.736 469.833 368.432 472.225 382.09 473.871C402.196 476.294 422.781 476.154 443 477.039C472.764 478.343 502.289 478.124 532 476.09C554.309 474.562 576.789 474.45 599 471.714C658.562 464.376 718.403 452.148 775 431.71C810.451 418.908 845.606 404.071 876.13 381.644C897.102 366.235 918.707 348.945 931.96 325.961C934.619 321.349 935.82 315.964 937.684 311C943.728 294.908 946.614 279.181 943.741 262C941.405 248.032 934.814 235.454 927.089 223.961C905.97 192.535 875.272 172.593 843 153.911C811.688 135.785 777.549 124.258 743 114.03C684.888 96.8272 625.419 86.0481 565 81.9105C543.63 80.447 522.404 79.898 501 78.9606C486.245 78.3145 470.757 76.4868 456 78.4244z" />
    <path style="fill:#4273b7; stroke:none;"
        d="M435 101.424C411.961 104.449 388.186 103.962 365 106.17C305.896 111.798 245.799 124.312 190 144.946C180.708 148.382 171.084 151.377 162 155.337C157.767 157.183 154.193 160.162 150 162.038C136.847 167.922 123.598 173.842 111.83 182.33C79.3737 205.741 43.0399 236.468 46.0895 281C46.6402 289.042 47.4786 297.485 50.6096 305C52.8985 310.494 57.1945 314.991 58.4074 321C59.8098 327.948 57.2409 335.82 58.1883 343C59.0641 349.638 63.9037 356.618 67.6983 361.982C76.8152 374.871 94.0565 383.018 108 389.474C141.655 405.055 177.96 411.206 214 418.371C233.56 422.26 252.607 429.266 272 433.765C292.55 438.533 314.12 441.691 335 444.7C427.888 458.085 524.151 456.842 617 443.791C646.096 439.701 674.647 432.866 703 425.289C753.526 411.787 806.122 394.039 847.834 361.38C858.224 353.246 866.99 343.766 875.84 334.089C883.476 325.739 893.404 320.01 901.714 312.486C915.176 300.299 927.122 281.969 922.239 263C916.056 238.977 895.105 232.206 877.015 219.356C870.695 214.866 865.843 208.288 860.004 203.209C847.534 192.363 833.498 182.574 819.015 174.66C812.61 171.16 806.533 166.74 799.925 163.673C750.437 140.704 698.445 126.047 645 116.679C634.283 114.8 623.799 111.843 613 110.3C585.18 106.325 557.018 104.188 529 102.961C507.292 102.01 485.798 101 464 101C454.453 101 444.474 100.18 435 101.424z" />
    <path style="fill:#fafbfd; stroke:none;"
        d="M61 313L64 313C71.4185 295.131 92.0668 282.568 107.83 272.972C153.998 244.868 205.991 229.246 258 215.715C330.378 196.885 404.666 186.881 479 180.907C482.402 180.633 485.598 179.367 489 179.093C524.182 176.266 559.665 176 595 176C632.401 176 669.805 176.449 707 180.171C738.587 183.331 771.043 187.757 802 194.887C809.604 196.639 817.567 198.104 825 200.463C834.729 203.55 844.751 208.106 855 209C847.16 198.542 834.006 191.627 823.271 184.504C786.141 159.868 741.739 145.966 699 134.845C624.852 115.55 549.503 108 473 108C410.33 108 348.633 112.79 287 124.612C268.135 128.23 249.627 133.47 231 138.127C218.323 141.296 206.199 146.179 193.961 150.617C157.701 163.767 122.649 179.488 93.0247 204.49C71.9261 222.296 53.3672 246.283 52.1042 275C51.5033 288.661 56.7914 300.374 61 313z" />
    <path style="fill:#4273b7; stroke:none;"
        d="M943.333 113.667C943.277 113.723 943.222 114.778 943.667 114.333C943.722 114.278 943.778 113.222 943.333 113.667M10 139L10 142C10.6961 140.446 10.6961 140.554 10 139M950 143L950 146C950.696 144.446 950.696 144.554 950 143z" />
    <path style="fill:#fafbfd; stroke:none;"
        d="M743 383C743.4 374.371 749.95 363.72 760 366.805C764.125 368.071 766.868 372.191 771 373.097C775.146 374.007 783.263 370.939 786.682 368.606C791.369 365.409 789.75 357.524 796.104 354.894C803.28 351.925 806.382 360.89 813.015 359.145C816.222 358.301 821.525 356.795 823.698 354.146C826.031 351.3 825.999 345.573 830.185 344.345C834.196 343.168 837.266 348.236 842 346.807C878.244 335.866 898.675 295.42 889.545 259.285C886.606 247.654 879.821 235.332 872.425 226.015C869.891 222.822 867.368 219.088 863.907 216.828C851.615 208.803 833.994 205.727 820 201.986C789.383 193.802 757.582 188.189 726 185.17C715.366 184.153 704.609 183.967 694 182.715C676.624 180.663 659.438 180.724 642 179.961C619.64 178.981 597.472 177.464 575 178.015C566.334 178.227 557.666 179.773 549 179.985C468.171 181.966 387.06 190.342 308 207.489C277.331 214.141 246.854 220.459 216.985 229.947C180.677 241.48 143.836 253.569 111.001 273.537C94.7775 283.403 77.9274 294.718 67.483 311C62.3052 319.072 68.8808 323.917 73.6644 330C84.0389 343.193 97.4476 356.08 112.015 364.612C120.172 369.39 127.768 375.214 136.166 379.616C164.706 394.575 194.949 405.963 226 414.488C230.746 415.792 235.165 417.938 240 418.985C249.652 421.076 259.305 421.024 269 422.184C279.795 423.476 290.057 424.747 301 425.015C316.994 425.406 333.049 427.595 349 427.985C392.473 429.05 435.746 427.068 479 424.09C529.47 420.614 579.981 415.675 630 407.56C668.095 401.38 705.271 390.783 743 383z" />
    <path style="fill:#4273b7; stroke:none;"
        d="M2 190L2 195C2.8299 192.97 2.8299 192.03 2 190M957 190L957 195C957.83 192.97 957.83 192.03 957 190M344 322C340.459 323.231 339.729 326.014 337.672 329.001C334.278 333.928 330.815 339.425 326 343L326 295C326 287.879 324.542 278.925 326.318 272.015C327.84 266.094 335.13 264.682 337 259C332.289 260.504 324.633 264.341 322.603 269.184C319.708 276.094 322.141 287.757 322.83 295C323.985 307.139 323 319.807 323 332C323 340.845 324.396 349.702 317 356L317 295C317 287.266 314.741 275.316 317.603 268.09C320.188 261.565 328.876 259.394 332 253L290 253C291.099 259.167 296.072 263.997 296.867 270.039C299.234 288.028 295.849 306.889 297.09 325C297.709 334.041 298 342.911 298 352C298 355.685 298.707 360.28 297.486 363.812C295.541 369.439 287.73 371.398 285 377L310 377C316.253 377 322.146 377.48 328 375L329 381C314.375 381 299.513 381.834 285 380L285 385L334 385C333.373 378.877 327.163 371.998 328.244 366C328.909 362.307 332.465 358.917 334.623 356C339.23 349.77 343.971 343.424 348.258 336.975C367.708 307.718 389.58 279.764 412.475 253.156C416.511 248.465 421.223 244.115 426.054 240.254C429.924 237.16 434.606 234.379 437 230C431.98 231.04 427.947 234.598 424 237.765C416.175 244.044 409.563 250.566 402.875 258.015C392.397 269.684 384.082 282.105 374.704 294.576C365.388 306.962 355.778 319.301 347.127 332.17C341.054 341.205 334.674 350.06 327.885 358.576C325.277 361.847 323.62 365.852 320 368C320.724 363.163 323.964 359.936 326.544 355.911C332.781 346.179 340.122 336.977 347.102 327.816C364.739 304.668 379.939 279.139 399.454 257.424C406.706 249.356 414.496 241.796 422.385 234.364C426.065 230.898 430.367 228.398 433 224C423.369 226.968 414.846 232.413 405 234.975C400.089 236.253 390.468 236.566 386.643 240.012C384.596 241.857 385.906 245.629 385.946 248C386.027 252.782 384.773 257.811 382.471 262C374.184 277.082 363.593 290.559 354.201 304.999C350.575 310.573 344.972 315.151 344 322z" />
    <path style="fill:#fafbfd; stroke:none;"
        d="M880 225C882.81 230.916 887.261 236.085 890.1 242.039C896.485 255.433 899.866 272.241 897.561 287C895.728 298.737 889.551 308.747 887 320C891.974 317.668 895.117 314.401 899.103 310.75C911.424 299.468 923.152 282.787 919.485 265C916.877 252.346 908.679 243.94 899 236.039C893.643 231.666 886.782 226.593 880 225z" />
    <path style="fill:#4273b7; stroke:none;"
        d="M421 253C422.108 257.832 426.282 262.003 426.336 267C426.422 274.852 420.992 284.658 418.319 292C412.309 308.513 406.564 325.242 401.194 342C397.83 352.501 390.876 369.167 379 372L376 377L404 377C409.519 377 414.329 376.307 418 381L372 381L372 385L422 385C421.569 376.698 414.861 371.009 414.106 363C413.638 358.036 415.471 353.729 416.572 349C419.514 336.36 425.231 324.545 428.522 312C430.397 304.855 432.21 294.892 438 290C439.617 310.492 444.558 330.687 446.871 351C447.513 356.64 448.271 362.345 448.83 368C449.054 370.261 448.518 373.49 450.028 375.397C452.842 378.95 463.866 377 468 377C469.602 369.337 472.799 362.361 475.315 355C479.425 342.975 483.348 330.962 487.62 319C493.113 303.616 496.414 286.55 504.609 272.285C509.393 263.958 519.286 260.684 524 253L487 253C488.241 257.689 492.406 261.086 492.722 266.004C493.166 272.909 490.06 280.599 487.862 287C484.401 297.079 481.057 307.097 477.384 317.09C475.177 323.092 474.549 330.207 470 335C469.302 318.745 465.997 302.1 463.715 286C462.918 280.383 459.452 272.601 461.604 267.044C463.673 261.703 470.967 260.761 474 256C469.201 256.625 459.551 260.203 457.643 265.213C455.264 271.459 460.163 281.637 460.91 288C462.896 304.901 467.974 322.064 468.79 339C469.001 343.375 467.2 347.613 467 352L464 352C463.593 332.272 458.74 311.522 455.795 292C454.646 284.385 450.374 272.598 452.693 265.005C454.385 259.461 461.402 258.07 464 253L421 253M541 253C541.85 257.769 545.42 262.138 545.344 267C545.279 271.161 542.959 275.113 541.721 279C539.141 287.097 536.67 295.049 533.684 303C526.533 322.042 522.255 342.523 513.691 361C510.549 367.778 501.932 370.09 500 377L529 377C532.77 377 538.054 378.416 539 374C541.323 375.906 542.194 377.108 543 380L499 380C500.092 386.546 506.665 385 512 385L549 385C547.781 378.138 542.048 371.818 541.603 365C541.349 361.107 543.968 356.648 545.164 353C549.238 340.564 558.23 324.856 572 321C572 332.221 574.821 342.924 576.282 354C576.767 357.68 578.764 363.38 576.933 366.856C575.055 370.423 568.429 373.942 565 376C569.469 377.875 575.191 377 580 377L610 377L609 373C612.41 374.404 615.352 376.277 619 377C615.73 372.742 610.724 368.936 608.664 363.91C603.214 350.622 604.346 333.972 601.487 320C600.259 313.999 595.543 300.727 600.322 295.746C604.254 291.646 609.563 288.356 614 284.8C620.904 279.268 627.962 272.901 636 269.042C641.232 266.53 652.09 265.773 654 260C635.879 260.424 620.418 274.692 607.286 285.576C603.133 289.017 595.245 293.385 594.232 299.04C593.16 305.027 596.089 311.158 596.816 317C598.818 333.077 602.866 349.802 603 366L601 366C600.211 347.677 593.887 329.295 591.833 311C591.411 307.243 589.095 302.813 589.526 299.093C590.13 293.878 599.276 288.83 602.985 285.801C616.974 274.376 633.408 258.785 652 256L652 253L601 253C602.573 257.849 609.175 259.005 608.502 265.004C607.818 271.094 602.244 274.958 598.286 278.95C590.853 286.444 582.643 292.888 574.985 300.093C569.991 304.793 565.149 310.858 559 314C560.637 302.918 565.912 291.399 570.008 281C571.381 277.512 571.575 273.384 573.453 270.129C576.616 264.647 583.953 263.312 586 257C580.562 259.058 573.191 263.24 569.857 268.184C565.492 274.66 564.808 284.591 562.32 291.91C558.727 302.484 554.399 312.725 550 323C548.91 317.768 551.425 312.981 552.974 308C555.798 298.924 559.086 290.005 562.111 281C563.627 276.486 564.701 271.061 567.585 267.17C571.653 261.68 578.73 259.106 582 253L541 253M451 381L451 385L473 385C477.636 362.835 488.652 341.585 495.378 320C499.917 305.433 503.054 287.545 511.138 274.439C515.345 267.618 523.818 267.18 528 261C509.464 261.859 503.236 279.88 498.859 295C492.917 315.526 485.199 335.849 478.051 356C476.143 361.379 474.441 366.685 472.375 372C471.459 374.356 471.319 377.562 469.411 379.397C465.772 382.897 455.716 381 451 381z" />
    <path style="fill:#fafbfd; stroke:none;"
        d="M433 276C425.791 292.729 421.184 310.831 415.289 328C410.768 341.171 405.371 353.837 408 368C412.055 365.34 409.924 361.259 410.058 357C410.177 353.19 411.601 349.556 412.858 346C417.082 334.057 420.731 321.934 424.936 310C428.884 298.795 433.497 287.835 435 276L433 276z" />
    <path style="fill:#4273b7; stroke:none;"
        d="M574 280L574 284C574.71 282.24 574.71 281.76 574 280M601 299C602.949 298.064 603.55 297.608 605 296C602.868 296.777 602.229 297.13 601 299M469 303C468.578 305.47 468.731 307.496 469 310C470.059 307.466 470.059 305.534 469 303z" />
    <path style="fill:#fafbfd; stroke:none;"
        d="M534 367C538.911 365.565 539.414 358.42 540.704 354C542.448 348.022 544.544 339.797 549.023 335.338C555.54 328.851 568.064 323.542 570 314C562.229 317.409 555.409 324.326 549.487 330.306C547.509 332.303 544.839 334.086 543.303 336.455C540.697 340.474 539.908 346.494 538.215 351C536.186 356.403 534.255 361.158 534 367z" />
    <path style="fill:#4273b7; stroke:none;"
        d="M7 323L7 326C7.69612 324.446 7.6961 324.554 7 323M952 323L952 326C952.696 324.446 952.696 324.554 952 323z" />
    <path style="fill:#fafbfd; stroke:none;"
        d="M60 327C60 332 59.6448 337.119 60.9244 342C66.4331 363.014 85.6419 375.386 104 384.296C130.509 397.162 159.166 405.329 188 411C185.669 407.719 181.664 406.611 178 405.131C171.235 402.398 164.639 399.54 157.999 396.522C135.822 386.443 112.894 375.053 94 359.345C86.0998 352.777 78.5197 345.453 71.6613 337.816C68.1592 333.917 65.1677 328.603 60 327z" />
    <path style="fill:#4273b7; stroke:none;"
        d="M494 328C494.406 330.092 494.217 330.02 496 331C495.316 329.42 495.195 329.223 494 328z" />
    <path style="fill:#fafbfd; stroke:none;"
        d="M856 343C850.696 346.243 844.543 348.031 839.4 351.456C837.122 352.974 836.219 355.967 833.66 357.103C830.94 358.31 827.877 356.906 825.039 357.263C821.323 357.73 816.358 360.244 813.133 362.117C808.032 365.078 807.876 372.576 801.829 374.481C797.007 376.001 794.162 372.039 789.831 371.318C785.782 370.644 779.803 373.512 776.018 374.915C768.125 377.842 768.755 389.688 758.961 391.542C752.803 392.707 749.271 387.202 744 385.642C740.434 384.587 735.486 386.671 732 387.579C618.58 417.145 502.837 428.168 386 430.985C380.928 431.108 376.04 430.138 371 430.015C358.349 429.705 345.643 430.514 333 429.961C315.356 429.188 297.683 427.049 280 427C284.381 429.641 290.024 429.973 295 430.934C302.684 432.416 310.24 434.182 318 435.285C332.641 437.367 347.31 440.254 362 441.826C374.612 443.177 387.36 443.224 400 444.09C412.002 444.911 423.982 446.434 436 446.961C472.634 448.565 509.549 446.586 546 444.09C558.538 443.231 571.447 443.373 583.911 441.871C632.445 436.022 679.843 424.84 727 412.159C762.675 402.566 798.884 386.477 829.424 365.92C836.585 361.1 843.273 356.249 849.999 350.739C852.588 348.619 856.079 346.492 856 343z" />
    <path style="fill:#4273b7; stroke:none;"
        d="M567 381L567 385L625 385C622.562 378.647 615.676 380.998 610 381L567 381z" />
</svg>